<svg width="33" height="41" viewBox="0 0 33 41" fill="none" xmlns="http://www.w3.org/2000/svg">
<path d="M18.6546 32.4165C18.5543 32.2779 18.4143 32.162 18.234 32.0687C18.0538 31.9754 17.8148 31.9287 17.5187 31.9287H16.6492V34.7506H17.7123C17.8537 34.7506 17.9937 34.7266 18.1329 34.6778C18.2722 34.6291 18.3987 34.5506 18.5147 34.441C18.6306 34.3315 18.7239 34.1788 18.7946 33.9822C18.8653 33.7857 18.9006 33.5426 18.9006 33.2527C18.9006 33.1368 18.8851 33.0025 18.8526 32.8519C18.82 32.7013 18.7543 32.5557 18.6546 32.4165Z" fill="#190E83"/>
<path d="M32.4052 27.569V9.881C32.4052 9.33952 32.3402 8.93871 32.0164 8.61424L23.7902 0.388793C23.5435 0.142086 23.2014 0 22.8515 0H2.33593C1.49756 0 0.594849 0.647517 0.594849 2.06838V27.569H32.4052ZM22.5086 2.39709C22.5086 2.07333 22.8996 1.91145 23.1286 2.14048L30.2647 9.2766C30.4937 9.50564 30.3319 9.89655 30.0081 9.89655H22.5086V2.39709ZM12.8199 18.5044H15.4397V5.48905C15.4397 5.09814 15.7557 4.78216 16.1466 4.78216C16.5375 4.78216 16.8535 5.09814 16.8535 5.48905V6.12384C16.9277 6.44972 17.5236 8.67291 20.2904 10.8869C21.003 11.4581 21.5204 11.9861 21.9219 12.5488C22.8868 13.9018 24.3353 16.74 23.1851 20.5396C23.0925 20.845 22.8126 21.0415 22.5086 21.0415C22.4408 21.0415 22.3722 21.0316 22.3036 21.0111C21.9983 20.9185 21.8017 20.6386 21.8017 20.3346C21.8017 20.2667 21.8116 20.1982 21.8321 20.1296C22.5228 17.8491 19.7786 15.8288 18.1393 14.6207C17.6728 14.2779 17.3038 14.0064 17.0641 13.7689L16.8535 13.5957V21.706C16.8535 24.1596 14.8579 26.1552 12.4043 26.1552C9.95416 26.1552 8.37071 24.5717 8.37071 22.1216C8.37071 19.8907 10.0757 18.5044 12.8199 18.5044Z" fill="#190E83"/>
<path d="M0.594849 28.9824V39.5859C0.594849 40.2991 1.45726 40.9997 2.33593 40.9997H30.6641C31.5428 40.9997 32.4052 40.2991 32.4052 39.5859V28.9824H0.594849ZM13.7205 38.1721H12.5414V33.2719L10.9466 37.234H9.92235L8.31769 33.2719V38.1721H7.13859V31.0494H8.31769L10.4341 35.9206L12.5407 31.0494H13.7198L13.7205 38.1721ZM19.8387 34.234C19.7164 34.5273 19.5453 34.774 19.3262 34.9734C19.1071 35.1727 18.8427 35.3275 18.5338 35.4371C18.2248 35.5467 17.8827 35.6011 17.5095 35.6011H16.6492V38.1721H15.4892V31.0494H17.5377C17.841 31.0494 18.1407 31.0975 18.4362 31.1943C18.7317 31.2911 18.9982 31.4361 19.2336 31.629C19.469 31.822 19.6591 32.056 19.8041 32.3296C19.949 32.6031 20.0218 32.9106 20.0218 33.2528C20.0218 33.614 19.961 33.9406 19.8387 34.234ZM25.2358 36.9499C25.1425 37.1852 25.0245 37.3796 24.8831 37.5345C24.7417 37.6893 24.582 37.8137 24.4045 37.9063C24.2271 37.9989 24.0553 38.0689 23.8878 38.1141C23.7203 38.1594 23.5676 38.1876 23.429 38.2011C23.2905 38.2145 23.1823 38.2201 23.1053 38.2201C22.5638 38.2201 22.1375 38.1827 21.8244 38.1092C21.5112 38.0356 21.2942 37.9593 21.1719 37.8822L21.4327 37.0509C21.4907 37.0835 21.5451 37.1188 21.5967 37.157C21.6483 37.1951 21.7226 37.2326 21.8187 37.268C21.9148 37.3033 22.0506 37.3323 22.2245 37.3549C22.3984 37.3775 22.6366 37.3888 22.9398 37.3888C23.3845 37.3888 23.7167 37.268 23.9352 37.0262C24.1536 36.7844 24.2639 36.4805 24.2639 36.1129C24.2639 35.7651 24.1635 35.4717 23.9641 35.2335C23.7648 34.9953 23.4714 34.8758 23.0848 34.8758H22.1085L22.0986 34.0933H22.7561C22.8974 34.0933 23.0409 34.0897 23.1858 34.0834C23.3308 34.077 23.4672 34.041 23.5966 33.9774C23.7259 33.9137 23.832 33.8035 23.9154 33.6486C23.9988 33.4938 24.0412 33.2719 24.0412 32.982C24.0412 32.8661 24.0313 32.7438 24.0122 32.6145C23.9931 32.4851 23.9394 32.3663 23.8525 32.2568C23.7655 32.1472 23.6383 32.0588 23.4707 31.991C23.3032 31.9231 23.0713 31.8892 22.7751 31.8892C22.479 31.8892 22.2421 31.9167 22.0647 31.9712C21.8873 32.0256 21.7544 32.0694 21.6639 32.102L21.3253 31.2325C21.4801 31.1879 21.6717 31.1392 21.9 31.0876C22.1283 31.036 22.4592 31.0105 22.8904 31.0105C23.1936 31.0105 23.4799 31.048 23.7507 31.1215C24.0214 31.195 24.2582 31.3131 24.4611 31.4742C24.664 31.6354 24.8251 31.8418 24.9446 32.0928C25.0641 32.3437 25.1235 32.6399 25.1235 32.982C25.1235 33.1814 25.0881 33.3638 25.0174 33.5278C24.9467 33.6918 24.8562 33.836 24.7467 33.9576C24.6371 34.0791 24.5148 34.1809 24.3791 34.2622C24.2434 34.3435 24.1182 34.3958 24.0023 34.422C24.1508 34.4411 24.3035 34.4899 24.4611 34.5669C24.6187 34.644 24.7658 34.7542 24.9008 34.8956C25.0358 35.037 25.1489 35.2095 25.2394 35.4124C25.3299 35.6152 25.3744 35.8485 25.3744 36.1129C25.3765 36.4359 25.3292 36.7145 25.2358 36.9499Z" fill="#190E83"/>
</svg>
