<svg width="37" height="38" viewBox="0 0 37 38" fill="none" xmlns="http://www.w3.org/2000/svg">
<path d="M4.62504 24.5162H3.30354C1.47903 24.5162 0 23.1442 0 21.4517C0 20.4362 0.887452 19.613 1.98212 19.613H4.62496L4.62504 24.5162Z" fill="#BD4150"/>
<path d="M29.7318 0H5.28547L4.60492 1.2258V37.4062H35.6783L36.9997 36.7742V6.74196L29.7318 0Z" fill="#ECEAEC"/>
<path d="M5.28575 34.9355L5.28547 0C4.55572 0 3.96433 0.548773 3.96433 1.2258V36.7742C3.96433 37.4512 4.55599 38 5.28575 38H35.6786C36.4083 38 36.9997 37.4511 36.9997 36.7742H7.26787C6.17312 36.7742 5.28575 35.951 5.28575 34.9355Z" fill="#DAD8DB"/>
<path d="M36.9999 6.63671C36.9999 6.31164 36.8606 5.99984 36.6128 5.76991L30.7795 0.358996C30.5317 0.129141 30.1956 0 29.8452 0H29.7318L29.732 6.12906C29.732 6.4675 30.0278 6.74196 30.3927 6.74196L36.9997 6.74196L36.9999 6.63671Z" fill="#DAD8DB"/>
<path d="M22.464 23.2903H1.98185C1.75015 23.2903 1.52764 23.2535 1.3209 23.1856L0.684516 24.1706V31.914C0.684516 32.9296 1.57197 33.7527 2.66664 33.7527H22.464L23.7854 33.0967V24.5161C23.7854 23.8391 23.1938 23.2903 22.464 23.2903Z" fill="#E15F78"/>
<path d="M1.3209 23.1856C0.552821 22.9323 0 22.2512 0 21.4517V32.4838C0 33.4993 0.887453 34.3225 1.98213 34.3225H22.4643C23.194 34.3225 23.7854 33.7737 23.7854 33.0967L3.30355 33.0967C2.20887 33.0967 1.32142 32.2735 1.32142 31.258L1.3209 23.1856Z" fill="#DB4655"/>
<path d="M18.8562 28.1474H17.5592V26.9857H19.0252C19.3904 26.9857 19.6859 26.7112 19.6859 26.3728C19.6859 26.0343 19.3904 25.7599 19.0252 25.7599H16.8985C16.5333 25.7599 16.2378 26.0343 16.2378 26.3728V31.2401C16.2378 31.5786 16.5333 31.853 16.8985 31.853C17.2637 31.853 17.5592 31.5786 17.5592 31.2401V29.3733H18.8562C19.2214 29.3733 19.5169 29.0988 19.5169 28.7604C19.5169 28.422 19.2213 28.1474 18.8562 28.1474Z" fill="white"/>
<path d="M6.73802 25.742H5.26627C5.09073 25.742 4.92239 25.8069 4.79846 25.9221C4.67517 26.0371 4.60596 26.1928 4.60596 26.3549L4.60548 31.2581C4.60548 31.5966 4.90103 31.871 5.26619 31.871C5.63135 31.871 5.9269 31.5966 5.9269 31.2581V29.738C6.22333 29.7365 6.5492 29.7352 6.73794 29.7352C7.94062 29.7352 8.91945 28.8394 8.91945 27.7388C8.91953 26.6376 7.9407 25.742 6.73802 25.742ZM6.73802 28.5093C6.55088 28.5093 6.22829 28.5105 5.93346 28.512C5.93218 28.2292 5.92898 26.9678 5.92898 26.9678H6.7381C7.20463 26.9678 7.59819 27.3209 7.59819 27.7387C7.59819 28.1565 7.20455 28.5093 6.73802 28.5093Z" fill="white"/>
<path d="M12.2786 25.8144H10.8262C10.6507 25.8144 10.4823 25.8791 10.3584 25.9942C10.2345 26.1094 10.1649 26.2657 10.1655 26.4285L10.1693 28.8011C10.1693 29.4628 10.1758 31.1878 10.1758 31.1878C10.1765 31.3503 10.2468 31.5062 10.3714 31.6208C10.4946 31.7345 10.6623 31.7986 10.8366 31.7986H10.8392C10.8392 31.7986 11.9161 31.7947 12.3328 31.7881C13.8846 31.7627 15.0112 30.5087 15.0112 28.8065C15.0111 27.0168 13.9129 25.8144 12.2786 25.8144ZM12.3096 30.5623C12.1205 30.5652 11.7934 30.568 11.4953 30.5694C11.4934 30.0084 11.4908 29.2057 11.4908 28.801L11.4883 27.0401H12.2787C13.622 27.0401 13.6898 28.5114 13.6898 28.8064C13.6897 29.6693 13.2632 30.5467 12.3096 30.5623Z" fill="white"/>
<path d="M13.8541 20.734C13.3443 20.734 12.8837 20.4879 12.5598 20.0238C12.0785 19.3349 12.2049 18.5547 12.9063 17.8831C13.6135 17.2055 15.0607 16.5681 16.8022 16.0476C17.3455 15.0978 17.8985 13.986 18.4153 12.7569C18.7205 12.0305 18.9669 11.3757 19.1644 10.7901C18.294 9.30984 17.7765 7.93174 17.9139 7.03689C18.054 6.12889 18.785 5.61775 19.8716 5.67341C20.1942 5.68959 20.9639 5.84582 21.1498 6.9453C21.2917 7.78598 21.053 9.14492 20.5742 10.6892C21.4802 12.1068 22.7222 13.6253 23.9371 14.7907C25.7735 14.6868 27.3297 14.811 28.1124 15.2491C28.7253 15.5921 28.966 16.1514 28.7563 16.7448C28.413 17.7148 27.5839 18.1592 26.536 17.9326C25.654 17.7417 24.561 17.0273 23.4525 16.0356C21.6698 16.1811 19.5715 16.5177 17.7306 17.0199C16.6318 18.8493 15.4439 20.2736 14.4465 20.6273C14.2452 20.6989 14.0464 20.734 13.8541 20.734ZM13.6683 19.3576C13.7786 19.5151 13.8393 19.5118 13.8677 19.5088C14.2884 19.469 14.9891 18.7953 15.7892 17.6565C15.2601 17.867 14.7859 18.095 14.3871 18.3398C13.387 18.9542 13.5992 19.2577 13.6683 19.3576ZM25.3082 15.9546C25.8728 16.364 26.3974 16.6438 26.8361 16.7391C27.1787 16.813 27.3549 16.7753 27.5007 16.3631C27.3059 16.089 26.4768 15.9573 25.3082 15.9546ZM20.0606 12.1754C19.6302 13.3121 19.1037 14.489 18.5288 15.5922C19.767 15.3037 21.0723 15.0765 22.3189 14.9323C21.513 14.0851 20.7342 13.1334 20.0606 12.1754ZM19.7425 6.8742C19.2734 6.8742 19.2489 7.03733 19.2218 7.20967C19.1527 7.66248 19.3243 8.30647 19.6631 9.04896C19.9618 7.72586 19.9012 7.0259 19.756 6.8742C19.7515 6.8742 19.747 6.8742 19.7425 6.8742Z" fill="#E15F78"/>
</svg>
