<svg width="37" height="38" viewBox="0 0 37 38" fill="none" xmlns="http://www.w3.org/2000/svg">
<path d="M32.7725 19C32.7725 28.8882 32.3526 37.096 32.3483 37.1777C32.3338 37.4634 32.1112 37.6905 31.833 37.7046C31.812 37.7053 31.0995 37.7402 29.8818 37.7855C27.5267 37.8731 23.2811 38 18.5 38C11.2474 38 5.22697 37.7076 5.16699 37.7046C4.88877 37.6905 4.66619 37.4634 4.65174 37.1777C4.6474 37.096 4.22754 28.8882 4.22754 19C4.22754 9.11184 4.6474 0.903984 4.65174 0.822344C4.66619 0.536602 4.88877 0.309492 5.16699 0.295391C5.22697 0.292422 11.2474 0 18.5 0C20.6196 0 21.3877 0.0252344 22.4515 0.059375C22.8706 0.0734766 23.3454 0.0890625 23.9683 0.104648L24.9324 1.09398L24.9338 1.09621L32.5694 8.93594C32.5875 9.50742 32.6055 10.0381 32.6229 10.5502C32.7031 12.9311 32.7725 14.9877 32.7725 19Z" fill="#E1FFF8"/>
<path d="M32.7725 19C32.7725 28.8882 32.3526 37.096 32.3483 37.1777C32.3338 37.4634 32.1112 37.6905 31.833 37.7046C31.812 37.7053 31.0995 37.7402 29.8818 37.7855C30.5473 19.6999 29.8739 9.02473 29.8739 9.02473C28.1489 5.6886 25.9882 2.55906 24.9338 1.09621L32.5694 8.93594C32.5875 9.50742 32.6055 10.0381 32.6229 10.5502C32.7031 12.9311 32.7725 14.9877 32.7725 19Z" fill="#C5DEED"/>
<path d="M32.5694 8.93594C31.6791 8.97973 30.762 9.0084 29.8739 9.02473C27.5679 9.06852 25.4548 9.03523 24.4966 9.01445C24.1902 9.00851 23.9409 8.75914 23.9264 8.44445C23.7421 4.42179 23.9683 0.104648 23.9683 0.104648C24.0883 0.108359 24.2032 0.15125 24.2964 0.22918L24.2971 0.229922C24.3658 0.286328 28.8874 4.07371 32.4494 8.60402C32.5239 8.69828 32.5658 8.81496 32.5694 8.93594Z" fill="#97B3BF"/>
<path d="M32.5694 8.93594C31.6791 8.97973 30.762 9.0084 29.8739 9.02473C27.5173 4.46621 24.3463 0.294492 24.2971 0.229922C24.3658 0.286328 28.8874 4.07371 32.4494 8.60402C32.5239 8.69828 32.5658 8.81496 32.5694 8.93594Z" fill="#708EA0"/>
<path d="M34.5791 27.9895C34.5791 31.0785 34.4584 33.6598 34.4396 34.0435V34.0509C34.4461 34.3538 34.2178 34.6061 33.9229 34.6187C33.9005 34.6195 33.1519 34.6529 31.8648 34.6974C29.1845 34.7894 24.1678 34.9289 18.5 34.9289C10.11 34.9289 3.14645 34.6224 3.07707 34.6187C2.78223 34.6061 2.5517 34.3538 2.5582 34.0509C2.55893 34.0413 2.55893 34.0324 2.55965 34.0227C2.53797 33.5745 2.4209 31.028 2.4209 27.9895C2.4209 24.6563 2.55748 21.9147 2.55893 21.888C2.57338 21.6015 2.7974 21.3729 3.07707 21.3603C3.14645 21.3573 10.11 21.0508 18.5 21.0508C24.1685 21.0508 29.1852 21.1911 31.8655 21.2823C33.1526 21.3261 33.9005 21.3595 33.9229 21.3603C34.2026 21.3729 34.4266 21.6015 34.4411 21.888C34.4425 21.9147 34.5791 24.6563 34.5791 27.9895Z" fill="#FF8F8F"/>
<path d="M18.8023 3.52043C18.6527 3.41704 18.4625 3.397 18.2952 3.46699L12.02 6.09619C11.816 6.18162 11.6827 6.38535 11.6827 6.61157V13.6963C11.3639 13.5066 10.9939 13.3978 10.5996 13.3978C9.40468 13.3978 8.4325 14.3963 8.4325 15.6235C8.4325 16.8507 9.40468 17.8492 10.5996 17.8492C11.7945 17.8492 12.7667 16.8507 12.7667 15.6235V9.6575L17.958 7.48245V11.8093C17.6391 11.6196 17.2691 11.5108 16.8749 11.5108C15.6799 11.5108 14.7078 12.5093 14.7078 13.7365C14.7078 14.9637 15.6799 15.9622 16.8749 15.9622C18.0698 15.9622 19.042 14.9637 19.042 13.7365V3.98236C19.042 3.79704 18.9521 3.62381 18.8023 3.52043Z" fill="#8AD2FF"/>
<path d="M15.3373 24.3756C15.0908 24.3174 14.8388 24.4413 14.7283 24.6744L13.2033 27.8917L11.6784 24.6744C11.568 24.4412 11.3152 24.3174 11.0694 24.3756C10.8235 24.4339 10.6492 24.6587 10.6492 24.9181V31.0621C10.6492 31.3695 10.8918 31.6188 11.1912 31.6188C11.4906 31.6188 11.7332 31.3695 11.7332 31.0621V27.3335L12.716 29.4072C12.8068 29.5987 12.996 29.7202 13.2033 29.7202C13.4107 29.7202 13.5998 29.5987 13.6906 29.4073L14.6736 27.3334V31.0621C14.6736 31.3695 14.9162 31.6188 15.2156 31.6188C15.515 31.6188 15.7576 31.3695 15.7576 31.0621V24.9181C15.7576 24.6587 15.5833 24.4338 15.3373 24.3756Z" fill="white"/>
<path d="M19.768 24.3613H17.4558C17.1564 24.3613 16.9138 24.6106 16.9138 24.918V31.062C16.9138 31.3694 17.1564 31.6187 17.4558 31.6187C17.7552 31.6187 17.9978 31.3694 17.9978 31.062V28.8726H19.768C20.6162 28.8726 21.3063 28.1639 21.3063 27.2927V25.9411C21.3063 25.0701 20.6162 24.3613 19.768 24.3613ZM20.2223 27.2927C20.2223 27.55 20.0185 27.7594 19.768 27.7594H17.9978V25.4747H19.768C20.0185 25.4747 20.2223 25.684 20.2223 25.9413V27.2927Z" fill="white"/>
<path d="M26.3508 25.843C26.3508 25.026 25.7036 24.3613 24.9081 24.3613H22.7454C22.446 24.3613 22.2034 24.6106 22.2034 24.918C22.2034 25.2254 22.446 25.4746 22.7454 25.4746H24.9081C25.1058 25.4746 25.2669 25.6399 25.2669 25.843V27.0648C25.2669 27.268 25.1058 27.4332 24.9081 27.4332H22.7454C22.446 27.4332 22.2034 27.6825 22.2034 27.9899C22.2034 28.2973 22.446 28.5465 22.7454 28.5465H24.9081C25.1058 28.5465 25.2669 28.7118 25.2669 28.915V30.1368C25.2669 30.3399 25.1058 30.5052 24.9081 30.5052H22.7454C22.446 30.5052 22.2034 30.7545 22.2034 31.0619C22.2034 31.3693 22.446 31.6185 22.7454 31.6185H24.9081C25.7036 31.6185 26.3508 30.9538 26.3508 30.1368V28.915C26.3508 28.5654 26.2323 28.2436 26.0343 27.9899C26.2323 27.7362 26.3508 27.4145 26.3508 27.0648V25.843Z" fill="white"/>
<path d="M34.5791 27.9895C34.5791 31.0785 34.4584 33.6598 34.4396 34.0435V34.0509C34.4461 34.3538 34.2178 34.6061 33.9229 34.6187C33.9005 34.6195 33.1519 34.6529 31.8648 34.6974C32.0874 28.2144 31.9081 22.4854 31.8655 21.2823C33.1526 21.3261 33.9005 21.3595 33.9229 21.3603C34.2026 21.3729 34.4266 21.6015 34.4411 21.888C34.4425 21.9147 34.5791 24.6563 34.5791 27.9895Z" fill="#DB5E7F"/>
</svg>
